<?xml version="1.0" encoding="UTF-8"?>
<svg version="1.1" xmlns="http://www.w3.org/2000/svg" width="256" height="256">
<path d="M0 0 C1.13523102 -0.0127597 2.27046204 -0.02551941 3.44009399 -0.03866577 C4.67335419 -0.04089142 5.90661438 -0.04311707 7.17724609 -0.04541016 C9.07559708 -0.05539536 9.07559708 -0.05539536 11.01229858 -0.06558228 C13.69746904 -0.07572794 16.38223504 -0.08126184 19.06738281 -0.08007812 C22.49042555 -0.07987587 25.91262928 -0.10707157 29.33547401 -0.14162254 C32.6160323 -0.16937665 35.89658646 -0.16804524 39.17724609 -0.17041016 C40.3983609 -0.18478119 41.61947571 -0.19915222 42.87759399 -0.21395874 C50.85981769 -0.17140193 56.75273845 0.57280087 62.70458984 6.36083984 C65.55943044 10.83084078 68.03437958 15.47887567 70.51318359 20.16552734 C74.84664324 28.27029452 79.25971113 36.31456102 83.82568359 44.29052734 C89.09757301 53.52745339 94.11373935 62.88513121 99.07568359 72.29052734 C104.54980269 82.66637231 110.13336687 92.95827499 115.94775391 103.14892578 C119.80529273 109.91125257 123.59037251 116.70989257 127.32568359 123.54052734 C128.09682495 124.94455811 128.09682495 124.94455811 128.88354492 126.37695312 C129.35429443 127.24046387 129.82504395 128.10397461 130.31005859 128.99365234 C130.72481445 129.75323242 131.13957031 130.5128125 131.56689453 131.29541016 C134.32917205 136.7584624 134.24789662 142.30872768 133.57568359 148.29052734 C132.22217755 152.26909758 130.29418201 155.78093314 128.20068359 159.41552734 C127.65919678 160.40037109 127.11770996 161.38521484 126.55981445 162.39990234 C125.45240188 164.40754358 124.33420957 166.40927818 123.20507812 168.40478516 C121.68360492 171.09939309 120.19871803 173.81013973 118.72802734 176.53271484 C113.89192762 185.43177817 113.89192762 185.43177817 111.57568359 189.29052734 C111.17333496 189.96728516 110.77098633 190.64404297 110.35644531 191.34130859 C107.27472238 196.13376592 107.27472238 196.13376592 104.15771484 196.83276367 C101.57568359 196.29052734 101.57568359 196.29052734 99.60327148 193.91040039 C98.98701904 192.82283447 98.3707666 191.73526855 97.73583984 190.61474609 C97.39601578 190.02739182 97.05619171 189.44003754 96.70606995 188.83488464 C95.64617581 186.99561558 94.61124839 185.14357518 93.57568359 183.29052734 C92.32456504 181.13026479 91.07326735 178.97010597 89.82177734 176.81005859 C88.55022514 174.57553032 87.28075977 172.33981349 86.01318359 170.10302734 C84.60802882 167.63235137 83.20117087 165.16264628 81.79443359 162.69287109 C81.44150742 162.07277161 81.08858124 161.45267212 80.72496033 160.81378174 C77.17784285 154.58414618 73.59883203 148.37305713 70.01318359 142.16552734 C69.39813965 141.10035889 68.7830957 140.03519043 68.14941406 138.93774414 C66.29200113 135.72171764 64.43395788 132.50605621 62.57568359 129.29052734 C54.51479055 115.34208367 46.47858934 101.38048846 38.49832153 87.38580322 C33.9017409 79.3278944 29.26236967 71.2963924 24.57568359 63.29052734 C17.40650795 51.04198457 10.36132299 38.7251619 3.34667969 26.38769531 C1.76862978 23.62795708 0.17222001 20.88038751 -1.43603516 18.13818359 C-1.86553467 17.39826172 -2.29503418 16.65833984 -2.73754883 15.89599609 C-3.4960853 14.59020855 -4.26244398 13.28891352 -5.03881836 11.99365234 C-6.96895445 8.64442592 -8.02658239 6.17103655 -7.42431641 2.29052734 C-4.80471696 -0.3290721 -3.65263855 0.0277964 0 0 Z " fill="#C14EFF" transform="translate(106.42431640625,29.70947265625)"/>
<path d="M0 0 C1.09362854 -0.00419449 2.18725708 -0.00838898 3.31402588 -0.01271057 C4.51412292 -0.00709106 5.71421997 -0.00147156 6.95068359 0.00431824 C8.21426697 0.00241989 9.47785034 0.00052155 10.77972412 -0.00143433 C14.24662753 -0.0062843 17.71340236 0.00137492 21.18029022 0.01151872 C24.80638993 0.02029743 28.43248558 0.0185418 32.05859375 0.01815796 C38.14829665 0.01909472 44.23794974 0.02778022 50.32763672 0.04142761 C57.37074602 0.05715325 64.41380076 0.06242571 71.45692635 0.06169206 C78.22883995 0.06108189 85.00073578 0.06618634 91.77264404 0.07448387 C94.65614969 0.07801658 97.53964904 0.0798471 100.42315674 0.08037758 C104.44798361 0.0815678 108.47274578 0.09127651 112.49755859 0.10197449 C113.69765564 0.1015213 114.89775269 0.10106812 116.13421631 0.1006012 C117.77465912 0.10699867 117.77465912 0.10699867 119.44824219 0.11352539 C120.87624649 0.11603916 120.87624649 0.11603916 122.33309937 0.11860371 C124.72412109 0.24723816 124.72412109 0.24723816 127.72412109 1.24723816 C129.32714844 3.56608582 129.32714844 3.56608582 131.06005859 6.66130066 C131.70652344 7.80461853 132.35298828 8.9479364 133.01904297 10.12590027 C133.71279191 11.37446319 134.40614278 12.62324736 135.09912109 13.87223816 C135.80997009 15.14031252 136.5215651 16.40796896 137.23388672 17.67521667 C138.32367189 19.61507669 139.41235105 21.55550505 140.49713135 23.49816895 C142.84784732 27.70576877 145.24231779 31.88399501 147.66943359 36.04801941 C148.27094238 37.08684265 148.87245117 38.12566589 149.4921875 39.19596863 C150.625142 41.15108972 151.76517226 43.10213194 152.91308594 45.04850769 C153.41791504 45.92748718 153.92274414 46.80646667 154.44287109 47.71208191 C154.88566406 48.47125916 155.32845703 49.2304364 155.78466797 50.01261902 C156.88477006 52.62936393 157.04548705 54.43499287 156.72412109 57.24723816 C154.16660268 59.80475657 153.22899598 59.50188938 149.67807007 59.5146637 C148.6098703 59.52319366 147.54167053 59.53172363 146.44110107 59.54051208 C145.26396545 59.53960571 144.08682983 59.53869934 142.87402344 59.5377655 C141.63812469 59.54448273 140.40222595 59.55119995 139.12887573 59.55812073 C135.73179628 59.57390104 132.33496129 59.58047816 128.93786192 59.5817523 C126.8140899 59.58317296 124.69034356 59.58744111 122.56657791 59.59274673 C115.15276717 59.61126752 107.73902842 59.61941554 100.32519531 59.61784363 C93.42352933 59.61664441 86.5221772 59.63769796 79.62059057 59.66933095 C73.69094769 59.69553652 67.76140695 59.70620901 61.83170664 59.70493281 C58.29232877 59.70442406 54.75322917 59.7100575 51.21390915 59.73128891 C47.25934528 59.75436096 43.30520603 59.74512415 39.35058594 59.733078 C38.1855957 59.74431702 37.02060547 59.75555603 35.8203125 59.76713562 C28.98514725 59.71429343 24.54410278 58.9079857 18.72412109 55.24723816 C16.8347168 53.25920105 16.8347168 53.25920105 15.58740234 51.15739441 C15.10996582 50.36864929 14.6325293 49.57990417 14.140625 48.76725769 C13.43945557 47.51984802 13.43945557 47.51984802 12.72412109 46.24723816 C12.24765137 45.41176453 11.77118164 44.57629089 11.28027344 43.71549988 C9.79364282 41.05397572 8.34756493 38.37392125 6.91162109 35.68473816 C2.53259664 27.51963345 2.53259664 27.51963345 -2.05322266 19.46989441 C-2.68296997 18.39106995 -2.68296997 18.39106995 -3.32543945 17.29045105 C-4.10149152 15.96956844 -4.88748745 14.654456 -5.68530273 13.34660339 C-7.9217882 9.51763564 -8.97215259 6.68275938 -8.27587891 2.24723816 C-4.93672855 0.02113792 -3.89314047 -0.00222778 0 0 Z " fill="#DF66FF" transform="translate(24.27587890625,166.7527618408203)"/>
<path d="M0 0 C2.6875 0.375 2.6875 0.375 4.62939453 2.53564453 C6.67003358 5.35090339 8.51183499 8.20087529 10.3046875 11.1796875 C11.32792114 12.87315308 11.32792114 12.87315308 12.37182617 14.60083008 C13.10207867 15.81720331 13.83230258 17.0335937 14.5625 18.25 C15.32423864 19.51284745 16.08636937 20.77545848 16.84887695 22.0378418 C18.39462638 24.59746791 19.93884064 27.1580099 21.48193359 29.71923828 C24.59636138 34.8854251 27.73510818 40.03676237 30.875 45.1875 C34.43037515 51.02326525 37.9831338 56.86057019 41.52734375 62.703125 C42.16067627 63.74621826 42.79400879 64.78931152 43.4465332 65.86401367 C44.65574135 67.85573437 45.86397371 69.84804795 47.07104492 71.84106445 C50.45182012 77.40703196 50.45182012 77.40703196 54.0625 82.82421875 C56.04002621 85.92836446 56.18056804 87.75916768 55.6875 91.375 C53.26776546 93.79473454 52.70576925 93.62578866 49.39831543 93.62896729 C48.49814194 93.63460693 47.59796844 93.64024658 46.67051697 93.64605713 C45.68032059 93.64200867 44.69012421 93.63796021 43.66992188 93.63378906 C42.62921036 93.6372937 41.58849884 93.64079834 40.51625061 93.64440918 C37.06284999 93.65323958 33.60965284 93.64737267 30.15625 93.640625 C27.76493287 93.64197127 25.373616 93.64391148 22.9822998 93.64642334 C17.9652242 93.64937638 12.9482197 93.64507115 7.93115234 93.63574219 C1.48782441 93.62434761 -4.95533693 93.63090612 -11.39865875 93.64288712 C-16.33816797 93.65010084 -21.27763744 93.64782003 -26.21714783 93.64263153 C-28.59350097 93.64129368 -30.96985768 93.64294744 -33.34620667 93.64759064 C-36.66254286 93.65264782 -39.9786061 93.64495689 -43.29492188 93.63378906 C-44.78021645 93.63986176 -44.78021645 93.63986176 -46.29551697 93.64605713 C-47.19569046 93.64041748 -48.09586395 93.63477783 -49.02331543 93.62896729 C-49.807929 93.62821323 -50.59254257 93.62745918 -51.40093231 93.62668228 C-53.3125 93.375 -53.3125 93.375 -55.3125 91.375 C-56.43919952 85.18288666 -53.12289581 81.19002924 -49.875 76.25 C-48.67282331 74.36694152 -47.47239198 72.48276797 -46.2734375 70.59765625 C-45.30809082 69.08969482 -45.30809082 69.08969482 -44.32324219 67.55126953 C-41.16553585 62.56319772 -38.11737236 57.50928511 -35.06726074 52.45504761 C-33.27583739 49.48817556 -31.47787304 46.52527695 -29.6796875 43.5625 C-29.32096558 42.97137924 -28.96224365 42.38025848 -28.59265137 41.77122498 C-24.6219783 35.23192409 -20.62852735 28.70672894 -16.625 22.1875 C-15.65469849 20.60352417 -15.65469849 20.60352417 -14.66479492 18.98754883 C-3.31673581 0.53784905 -3.31673581 0.53784905 0 0 Z " fill="#E46BFF" transform="translate(84.3125,56.625)"/>
</svg>
