<svg xmlns="http://www.w3.org/2000/svg" xmlns:xlink="http://www.w3.org/1999/xlink" width="100" zoomAndPan="magnify" viewBox="0 0 75 74.999997" height="100" preserveAspectRatio="xMidYMid meet" version="1.0"><defs><clipPath id="309aa05903"><path d="M 26.25 26.25 L 48.75 26.25 L 48.75 48.75 L 26.25 48.75 Z M 26.25 26.25 " clip-rule="nonzero"/></clipPath></defs><g clip-path="url(#309aa05903)"><path fill="#212f5c" d="M 26.25 26.25 L 48.75 26.25 L 48.75 48.75 L 26.25 48.75 Z M 26.25 26.25 " fill-opacity="1" fill-rule="nonzero"/></g><path fill="#090909" d="M 43.019531 13.679688 L 25.003906 16.476562 L 21.429688 5.75 L 27.445312 9.398438 L 31.515625 0 L 38.398438 7.554688 L 42.914062 2.160156 Z M 12.792969 20.476562 L 14.171875 70.964844 L 61.210938 75 L 62.398438 12.796875 Z M 73.371094 44.417969 L 70.804688 41.074219 L 62.699219 47.269531 L 65.265625 50.613281 Z M 1.535156 64.503906 L 4.101562 67.851562 L 12.207031 61.65625 L 9.640625 58.3125 Z M 0.0664062 51.390625 L 0.175781 55.605469 L 10.386719 55.355469 L 10.28125 51.144531 Z M 0.332031 41.324219 L 9.339844 46.117188 L 11.324219 42.402344 L 2.316406 37.605469 Z M 74.839844 57.53125 L 74.730469 53.320312 L 64.519531 53.570312 L 64.625 57.78125 Z M 74.574219 67.601562 L 65.566406 62.808594 L 63.582031 66.523438 L 72.589844 71.320312 Z M 74.574219 67.601562 " fill-opacity="1" fill-rule="nonzero"/><path fill="#b70202" d="M 39.53125 33.941406 C 39.53125 40.242188 34.417969 45.359375 28.117188 45.359375 C 21.816406 45.359375 16.703125 40.242188 16.703125 33.941406 C 16.703125 27.644531 21.816406 22.527344 28.117188 22.527344 C 34.417969 22.527344 39.53125 27.644531 39.53125 33.941406 Z M 51.105469 27.449219 C 47.054688 27.449219 43.761719 30.738281 43.761719 34.792969 C 43.761719 38.84375 47.054688 42.136719 51.105469 42.136719 C 55.160156 42.136719 58.449219 38.84375 58.449219 34.792969 C 58.449219 30.738281 55.160156 27.449219 51.105469 27.449219 Z M 24.753906 52.824219 C 24.542969 52.046875 24.4375 51.65625 24.222656 50.878906 C 23.054688 51.003906 21.886719 51.144531 20.738281 51.269531 C 20.71875 51.976562 20.71875 52.332031 20.71875 53.039062 C 20.242188 53.25 19.996094 53.355469 19.515625 53.570312 C 19.996094 53.691406 20.226562 53.761719 20.703125 53.886719 C 20.683594 54.96875 20.683594 56.046875 20.667969 57.109375 C 20.667969 57.941406 20.667969 58.363281 20.648438 59.195312 C 21.304688 58.542969 21.941406 57.886719 22.578125 57.230469 C 23.25 57.851562 23.921875 58.488281 24.597656 59.125 C 25.269531 58.453125 25.941406 57.761719 26.597656 57.074219 C 27.25 57.726562 27.90625 58.398438 28.542969 59.054688 C 28.542969 58.292969 28.542969 57.53125 28.542969 56.773438 C 28.542969 54.648438 28.558594 52.523438 28.578125 50.402344 C 27.5 50.507812 26.402344 50.632812 25.320312 50.753906 C 25.089844 51.585938 24.984375 52.011719 24.753906 52.824219 Z M 33.691406 51.375 C 33.550781 50.789062 33.480469 50.507812 33.320312 49.921875 C 32.136719 50.046875 30.949219 50.171875 29.765625 50.296875 C 29.746094 52.453125 29.726562 54.59375 29.726562 56.753906 C 29.726562 57.53125 29.726562 58.292969 29.726562 59.074219 C 30.382812 58.363281 31.019531 57.640625 31.640625 56.929688 C 32.328125 57.621094 33.003906 58.328125 33.675781 59.039062 C 34.347656 58.292969 35.003906 57.550781 35.675781 56.808594 C 36.328125 57.53125 36.984375 58.277344 37.640625 59 C 37.640625 58.171875 37.621094 57.339844 37.621094 56.488281 C 37.621094 54.171875 37.621094 51.835938 37.621094 49.515625 C 36.433594 49.621094 35.25 49.746094 34.0625 49.871094 C 33.921875 50.453125 33.851562 50.773438 33.691406 51.375 Z M 42.753906 50.648438 C 42.613281 50.011719 42.523438 49.691406 42.382812 49.054688 C 41.195312 49.164062 40.011719 49.269531 38.824219 49.390625 C 38.808594 51.746094 38.808594 54.101562 38.824219 56.453125 C 38.824219 57.304688 38.84375 58.132812 38.84375 58.984375 C 39.480469 58.207031 40.117188 57.445312 40.753906 56.664062 C 41.445312 57.425781 42.117188 58.207031 42.804688 58.984375 C 43.480469 58.1875 44.132812 57.390625 44.789062 56.578125 C 45.441406 57.375 46.117188 58.1875 46.769531 58.984375 C 46.753906 58.082031 46.753906 57.160156 46.734375 56.257812 C 46.71875 53.726562 46.699219 51.199219 46.699219 48.667969 C 45.515625 48.773438 44.328125 48.878906 43.144531 48.984375 C 42.984375 49.65625 42.914062 49.976562 42.753906 50.648438 Z M 51.621094 56.171875 C 52.308594 57.019531 53 57.886719 53.671875 58.738281 C 54.308594 57.871094 54.929688 56.984375 55.566406 56.117188 C 55.546875 54.84375 55.53125 53.570312 55.53125 52.292969 C 56.007812 51.941406 56.238281 51.765625 56.714844 51.410156 C 56.238281 51.125 55.992188 51.003906 55.511719 50.738281 C 55.511719 49.816406 55.496094 48.878906 55.496094 47.957031 C 54.398438 48.046875 53.300781 48.136719 52.203125 48.222656 C 52.007812 49.164062 51.8125 50.101562 51.621094 51.039062 C 51.425781 50.136719 51.210938 49.234375 51.019531 48.332031 C 49.886719 48.417969 48.753906 48.523438 47.636719 48.613281 C 47.636719 51.160156 47.65625 53.710938 47.671875 56.257812 C 48.34375 57.074219 49 57.90625 49.65625 58.738281 C 50.328125 57.871094 50.984375 57.019531 51.621094 56.171875 Z M 55.671875 61.691406 C 55.65625 60.71875 55.636719 59.746094 55.617188 58.753906 C 55 59.621094 54.363281 60.472656 53.742188 61.339844 C 53.054688 60.472656 52.363281 59.605469 51.671875 58.738281 C 51.019531 59.566406 50.363281 60.398438 49.707031 61.230469 C 49.054688 60.382812 48.382812 59.550781 47.726562 58.71875 C 47.742188 59.640625 47.742188 60.542969 47.761719 61.460938 C 47.796875 63.976562 47.867188 66.503906 47.921875 69.019531 C 49.125 69.125 50.328125 69.25 51.53125 69.355469 C 51.691406 68.59375 51.832031 67.816406 51.992188 67.054688 C 52.1875 67.851562 52.378906 68.648438 52.574219 69.460938 C 53.691406 69.566406 54.789062 69.671875 55.902344 69.78125 C 55.882812 68.964844 55.847656 68.152344 55.832031 67.335938 C 56.308594 67.140625 56.539062 67.035156 57.015625 66.839844 C 56.523438 66.578125 56.292969 66.433594 55.796875 66.167969 C 55.742188 64.664062 55.707031 63.179688 55.671875 61.691406 Z M 42.824219 61.320312 C 42.152344 60.523438 41.460938 59.746094 40.769531 58.964844 C 40.152344 59.726562 39.515625 60.488281 38.878906 61.25 C 38.914062 63.566406 38.949219 65.902344 39 68.222656 C 40.117188 68.308594 41.25 68.417969 42.363281 68.503906 C 42.523438 67.796875 42.683594 67.089844 42.824219 66.382812 C 43.019531 67.125 43.195312 67.851562 43.390625 68.59375 C 44.578125 68.699219 45.761719 68.804688 46.949219 68.914062 C 46.875 66.417969 46.824219 63.902344 46.789062 61.410156 C 46.132812 60.59375 45.480469 59.761719 44.804688 58.964844 C 44.152344 59.761719 43.496094 60.542969 42.824219 61.320312 Z M 33.710938 61.179688 C 33.039062 60.453125 32.347656 59.746094 31.675781 59.039062 C 31.039062 59.746094 30.402344 60.433594 29.765625 61.144531 C 29.78125 63.265625 29.800781 65.390625 29.835938 67.515625 C 30.949219 67.601562 32.0625 67.691406 33.179688 67.761719 C 33.410156 66.839844 33.640625 65.902344 33.871094 64.984375 C 34.136719 65.957031 34.382812 66.914062 34.648438 67.867188 C 35.691406 67.957031 36.738281 68.027344 37.796875 68.117188 C 37.746094 65.816406 37.710938 63.515625 37.675781 61.214844 C 37.019531 60.472656 36.363281 59.710938 35.710938 58.984375 C 35.054688 59.726562 34.382812 60.453125 33.710938 61.179688 Z M 24.613281 61.089844 C 23.941406 60.433594 23.269531 59.796875 22.578125 59.160156 C 21.941406 59.816406 21.304688 60.453125 20.648438 61.089844 C 20.648438 61.992188 20.648438 62.894531 20.648438 63.796875 C 20.171875 64.011719 19.925781 64.132812 19.445312 64.347656 C 19.925781 64.578125 20.171875 64.683594 20.648438 64.914062 C 20.648438 65.691406 20.667969 66.082031 20.667969 66.859375 C 21.871094 66.929688 23.074219 67.019531 24.277344 67.105469 C 24.488281 66.328125 24.71875 65.53125 24.933594 64.753906 C 25.164062 65.566406 25.410156 66.382812 25.640625 67.214844 C 26.632812 67.285156 27.621094 67.355469 28.613281 67.425781 C 28.578125 65.335938 28.558594 63.230469 28.542969 61.144531 C 27.886719 60.472656 27.25 59.78125 26.578125 59.125 C 25.941406 59.78125 25.285156 60.433594 24.613281 61.089844 Z M 24.613281 61.089844 " fill-opacity="1" fill-rule="nonzero"/></svg>